<svg xmlns="http://www.w3.org/2000/svg" width="40" height="40" viewBox="0 0 40 40"><path id="facebook_icon" fill="#b11116" fill-rule="evenodd" d="M19.924,40h0Zm.141,0h0Zm-.2,0h0Zm.267,0h0ZM19.8,40h0Zm.39,0h0Zm.065,0h0Zm-.53,0h0Zm.594,0h0Zm-.657,0h0Zm.721,0h0Zm-.78,0h0Zm-.073,0h0Zm.918,0h0Zm-.982,0h0Zm1.046,0h0Zm.064,0h0Zm-1.169,0h0Zm-.056,0h0Zm1.29,0h0Zm.064,0h0Zm-1.435,0h0Zm-.059,0h0Zm1.558,0h0Zm-1.615,0h0Zm1.679,0h0Zm-1.76,0h0Zm1.824,0h0Zm-1.882,0h0Zm1.945,0h0Zm-2,0,.031,0h-.031Zm2.066,0h-.022l.031,0Zm.064,0h0l.03,0h-.026Zm-2.182,0h-.03l.03,0Zm2.245,0h-.013l.032,0Zm-2.332,0,.032,0h-.032Zm-.056,0,.032,0h-.032Zm2.452,0H21.2l.032,0Zm-2.506,0,.029,0-.027,0-.027,0,.025,0Zm2.569,0-.027,0,.029,0,.025,0-.027,0Zm.064,0h-.01l.03,0h-.021Zm-2.715,0,.03,0h-.03Zm-.056,0,.03,0h-.03Zm2.835,0h-.016l.03,0Zm-2.891-.005.027,0H18.52Zm2.955,0h-.021l.027,0Zm-3.03-.006.024,0h-.024Zm3.094,0h-.006l.024,0Zm.063,0H21.59l.024,0Zm-3.215,0,.024,0h-.024Zm-.057,0,.021,0h-.021Zm3.335,0H21.65l.021,0Zm-3.4-.006h0Zm3.461,0h0Zm.063-.006h0Zm-3.591,0h0Zm-.059-.005h0Zm3.713,0h0Zm-4.979-.158a20,20,0,1,1,6.25,0V25.781h4.66L28.672,20H23.125V16.248c0-1.582.775-3.123,3.259-3.123h2.522V8.2a30.755,30.755,0,0,0-4.477-.391c-4.568,0-7.554,2.769-7.554,7.781V20H11.8v5.781h5.078Z"/></svg>
