<svg xmlns="http://www.w3.org/2000/svg" width="40" height="40" viewBox="0 0 40 40"><path id="iconfinder_Circled_Instagram_svg_5279112" fill="#b11116" fill-rule="evenodd" d="M20,0A20,20,0,1,1,0,20,20.01,20.01,0,0,1,20,0Zm0,7.5c-3.395,0-3.82.014-5.154.075a9.176,9.176,0,0,0-3.034.581,6.392,6.392,0,0,0-3.656,3.656,9.177,9.177,0,0,0-.581,3.034C7.514,16.18,7.5,16.605,7.5,20s.014,3.82.075,5.154a9.177,9.177,0,0,0,.581,3.034,6.392,6.392,0,0,0,3.656,3.656,9.178,9.178,0,0,0,3.034.581c1.333.061,1.759.075,5.154.075s3.82-.014,5.154-.075a9.177,9.177,0,0,0,3.034-.581,6.392,6.392,0,0,0,3.656-3.656,9.177,9.177,0,0,0,.581-3.034c.061-1.333.075-1.759.075-5.154s-.014-3.82-.075-5.154a9.177,9.177,0,0,0-.581-3.034,6.392,6.392,0,0,0-3.656-3.656,9.175,9.175,0,0,0-3.034-.581C23.82,7.514,23.395,7.5,20,7.5Zm0,2.252c3.338,0,3.733.013,5.051.073a6.917,6.917,0,0,1,2.321.43,4.14,4.14,0,0,1,2.372,2.372,6.915,6.915,0,0,1,.43,2.321c.06,1.318.073,1.713.073,5.051s-.013,3.733-.073,5.051a6.915,6.915,0,0,1-.43,2.321,4.14,4.14,0,0,1-2.372,2.372,6.915,6.915,0,0,1-2.321.43c-1.318.06-1.713.073-5.051.073s-3.733-.013-5.051-.073a6.915,6.915,0,0,1-2.321-.43,4.139,4.139,0,0,1-2.372-2.372,6.916,6.916,0,0,1-.43-2.321c-.06-1.318-.073-1.713-.073-5.051s.013-3.733.073-5.051a6.916,6.916,0,0,1,.43-2.321,4.139,4.139,0,0,1,2.372-2.372,6.917,6.917,0,0,1,2.321-.43c1.318-.06,1.713-.073,5.051-.073Zm0,3.829A6.419,6.419,0,1,0,26.419,20,6.419,6.419,0,0,0,20,13.581Zm0,10.586A4.167,4.167,0,1,1,24.167,20,4.167,4.167,0,0,1,20,24.167Zm8.173-10.839a1.5,1.5,0,1,1-1.5-1.5A1.5,1.5,0,0,1,28.173,13.328Z"/></svg>