<svg xmlns="http://www.w3.org/2000/svg" width="40" height="40" viewBox="0 0 40 40"><path id="twitter_icon" fill="#b11116" fill-rule="evenodd" d="M20,0A20,20,0,1,1,0,20,20.01,20.01,0,0,1,20,0ZM16.477,30.637A13.6,13.6,0,0,0,30.167,16.948c0-.21,0-.419-.01-.619a9.856,9.856,0,0,0,2.4-2.494,9.764,9.764,0,0,1-2.764.758,4.809,4.809,0,0,0,2.115-2.664A9.744,9.744,0,0,1,28.86,13.1a4.814,4.814,0,0,0-8.321,3.293,4.41,4.41,0,0,0,.13,1.1,13.648,13.648,0,0,1-9.918-5.029,4.809,4.809,0,0,0,1.5,6.416,4.726,4.726,0,0,1-2.175-.6v.06a4.817,4.817,0,0,0,3.861,4.719,4.8,4.8,0,0,1-1.267.17,4.589,4.589,0,0,1-.908-.09,4.8,4.8,0,0,0,4.49,3.342,9.671,9.671,0,0,1-5.977,2.055,8.756,8.756,0,0,1-1.147-.07,13.4,13.4,0,0,0,7.354,2.175Z"/></svg>